<svg width="182" height="182" version="1.1" xmlns="http://www.w3.org/2000/svg" desc="Created with imagetracer.js version 1.2.6" ><path fill="rgb(29,146,240)" stroke="rgb(29,146,240)" stroke-width="1" opacity="0.9882352941176471" d="M 87.5 8 L 90 8.5 L 87.5 9 L 87.5 8 Z " /><path fill="rgb(29,146,240)" stroke="rgb(29,146,240)" stroke-width="1" opacity="0.9882352941176471" d="M 96.5 8 L 99 8.5 L 96.5 9 L 96.5 8 Z " /><path fill="rgb(29,146,240)" stroke="rgb(29,146,240)" stroke-width="1" opacity="0.9882352941176471" d="M 101.5 9 L 107 9.5 L 104 10 L 103 13.5 L 104.5 13 L 107.5 11 L 109 11.5 Q 108.2 8.9 111.5 10 L 114.5 11 Q 119.5 10 120.5 13 L 122.5 12 L 124.5 13 Q 126 10.5 127.5 14 L 129.5 13 L 133.5 15 L 135 14.5 Q 134.2 17.1 137.5 16 L 139 15.5 L 138 16.5 L 139.5 19 Q 137.3 19.8 138 17.5 L 136.5 18 L 133 19.5 L 135 20.5 Q 133.8 23 130 22 L 128 25.5 L 128.5 27 Q 127.3 24.8 126 27.5 L 126.5 29 Q 125.3 26.8 124 29.5 L 125 30.5 Q 120.8 32.7 122.5 35 L 121 34.5 Q 119.9 37.8 122.5 37 L 122.5 38 L 119.5 36 L 119 38.5 L 120.5 41 Q 118.5 37 116.5 41 L 115 41.5 L 119 42 L 118.5 44 L 115 43 Q 116.1 45.7 113.5 45 L 111.5 46 L 110.5 45 L 107.5 48 L 102 51.5 L 102.5 53 L 100 54.5 L 101 56.5 L 99 56.5 L 100 60 L 95 59 L 94.5 66 L 94 47 L 80 47 L 80 69.5 L 77.5 70 L 76.5 71 L 54 71 L 54.5 59 L 55.5 66 L 62 65 Q 63.3 62 59.5 63 L 59.5 62 L 63.5 63 L 64 61.5 L 62.5 59 L 64 59.5 L 65.5 56 Q 68.1 56.7 67 54 L 70 54 Q 68.5 50.3 71.5 51 L 73 48.5 L 73 44.5 Q 72.3 42.3 74.5 43 L 80.5 37 L 82.5 37 Q 85.8 38.1 85 35.5 L 85 33.5 L 86.5 30 L 87 31.5 L 86 33.5 L 88 32.5 L 89 29 L 91 28.5 L 88 26.5 L 89.5 27 L 92 27 L 92 24 L 94 24 L 94 22 L 96 22 Q 94.9 19.3 97.5 20 Q 101.8 18.2 99 16.5 L 99.5 15 L 101 15.5 L 102 13.5 L 100.5 11 Q 101.8 13.3 103 10.5 L 101.5 9 Z M 120 31 L 121 33 L 122 33 L 120 31 Z M 118 34 L 118 37 Q 121 36 118 34 Z " /><path fill="rgb(29,146,240)" stroke="rgb(29,146,240)" stroke-width="1" opacity="0.9882352941176471" d="M 97.5 16 L 98 17.5 L 96 18.5 L 97.5 16 Z " /><path fill="rgb(29,146,240)" stroke="rgb(29,146,240)" stroke-width="1" opacity="0.9882352941176471" d="M 142.5 16 L 143.5 18 Q 140.7 18.7 142.5 16 Z " /><path fill="rgb(29,146,240)" stroke="rgb(29,146,240)" stroke-width="1" opacity="0.9882352941176471" d="M 121.5 43 L 125 43.5 L 121.5 44 L 121.5 43 Z " /><path fill="rgb(29,146,240)" stroke="rgb(29,146,240)" stroke-width="1" opacity="0.9882352941176471" d="M 39.5 47 L 40 79.5 L 40 81.5 L 39 84.5 L 39 106.5 L 40.5 108 L 51.5 108 L 52.5 109 L 55 108 L 54 103.5 L 54 83 L 78.5 83 L 79.5 82 L 80 84.5 L 79.5 93 L 78.5 84 L 77 87.5 Q 78.3 91.3 74.5 90 L 73.5 93 Q 72.3 90.8 71 93.5 L 72 96 Q 68.3 94.5 69 97.5 L 69.5 99 L 66 99.5 L 66.5 101 L 65 101.5 L 65 103.5 Q 65.8 105.8 63.5 105 L 62.5 110 L 59 110.5 L 60 112.5 Q 56.9 114.2 58.5 116 L 56.5 115 L 55.5 120 Q 54 117.5 52.5 121 L 51 121.5 L 53 124.5 L 51.5 127 L 50 126.5 L 48.5 130 L 47.5 128 L 46.5 131 L 45 130.5 Q 45.7 133.5 42 132 L 41.5 128 L 40 133 Q 42.7 131.9 42 134.5 L 42.5 136 L 32 126.5 L 23 108.5 L 24 106.5 L 22 106.5 L 23.5 104 L 26 102.5 L 25 100.5 L 27 99.5 L 26.5 101 L 30 99.5 L 29.5 98 Q 31.8 98.8 31 96.5 L 30 93 L 34 92 L 33.5 89 L 32.5 91 L 32 89.5 L 36 88 L 35 85.5 L 36.5 83 Q 37.8 85.3 39 82.5 L 38 78.5 L 39 77.5 L 39.5 47 Z M 51 122 L 50 125 L 52 125 L 51 122 Z " /><path fill="rgb(29,146,240)" stroke="rgb(29,146,240)" stroke-width="1" opacity="0.9882352941176471" d="M 166.5 55 L 167 91.5 L 166 91.5 L 166.5 55 Z " /><path fill="rgb(29,146,240)" stroke="rgb(29,146,240)" stroke-width="1" opacity="0.9882352941176471" d="M 119 56 L 125 56.5 Q 123.6 59.3 119 58 L 119 56 Z " /><path fill="rgb(29,146,240)" stroke="rgb(29,146,240)" stroke-width="1" opacity="0.9882352941176471" d="M 114.5 62 L 115 64.5 L 114 64.5 L 114.5 62 Z " /><path fill="rgb(29,146,240)" stroke="rgb(29,146,240)" stroke-width="1" opacity="0.9882352941176471" d="M 99.5 67 L 100 70 L 98 69.5 L 99.5 67 Z " /><path fill="rgb(29,146,240)" stroke="rgb(29,146,240)" stroke-width="1" opacity="0.9882352941176471" d="M 102.5 74 L 103.5 76 L 102.5 74 Z " /><path fill="rgb(29,146,240)" stroke="rgb(29,146,240)" stroke-width="1" opacity="0.9882352941176471" d="M 93.5 81 L 94 103.5 L 93 103.5 L 93.5 81 Z " /><path fill="rgb(29,146,240)" stroke="rgb(29,146,240)" stroke-width="1" opacity="0.9882352941176471" d="M 106.5 87 L 110 87.5 L 106.5 88 L 106.5 87 Z " /><path fill="rgb(29,146,240)" stroke="rgb(29,146,240)" stroke-width="1" opacity="0.9882352941176471" d="M 20.5 93 L 21 98.5 L 20 98.5 L 20.5 93 Z " /><path fill="rgb(29,146,240)" stroke="rgb(29,146,240)" stroke-width="1" opacity="0.9882352941176471" d="M 79.5 95 L 80 97.5 L 79 97.5 L 79.5 95 Z " /><path fill="rgb(29,146,240)" stroke="rgb(29,146,240)" stroke-width="1" opacity="0.9882352941176471" d="M 21.5 100 L 22 102.5 L 21 102.5 L 21.5 100 Z " /><path fill="rgb(29,146,240)" stroke="rgb(29,146,240)" stroke-width="1" opacity="0.9882352941176471" d="M 45.5 139 L 46.5 141 L 45.5 139 Z " /><path fill="rgb(22,128,236)" stroke="rgb(22,128,236)" stroke-width="1" opacity="0.9686274509803922" d="M 152.5 19 L 156 20.5 L 154 21 L 153 24.5 L 155 25 L 157 21 L 160.5 21 L 166 24.5 L 165.5 34 L 164.5 32 L 162 33 L 162.5 35 L 164 34.5 L 163 37 L 161 37.5 L 161.5 39 L 159.5 38 L 159 39.5 L 159.5 41 L 157.5 41 L 155 41.5 L 159 43.5 L 157 43.5 L 155.5 46 L 153 45 L 154 50 Q 151 49 152 52 L 149 52 L 149 54.5 L 145 56 L 142 50 Q 138.2 50.8 137 47.5 L 139.5 49 L 142 48.5 L 140 48 L 139 45.5 L 139.5 43 L 141.5 44 L 141.5 40 L 143 40.5 L 145 37.5 L 144 34.5 L 146 31.5 L 145 29.5 L 146 29.5 L 146.5 31 L 150 29 Q 149.4 23.2 154 20.5 L 152.5 19 Z " /><path fill="rgb(22,128,236)" stroke="rgb(22,128,236)" stroke-width="1" opacity="0.9686274509803922" d="M 121.5 44 L 124 44.5 L 121.5 45 L 121.5 44 Z " /><path fill="rgb(22,128,236)" stroke="rgb(22,128,236)" stroke-width="1" opacity="0.9686274509803922" d="M 125.5 44 L 129 44.5 L 125.5 45 L 125.5 44 Z " /><path fill="rgb(22,128,236)" stroke="rgb(22,128,236)" stroke-width="1" opacity="0.9686274509803922" d="M 113.5 45 L 115 45.5 L 112.5 47 L 113.5 45 Z " /><path fill="rgb(22,128,236)" stroke="rgb(22,128,236)" stroke-width="1" opacity="0.9686274509803922" d="M 134 46 L 136 46.5 L 134 47.5 L 134 46 Z " /><path fill="rgb(22,128,236)" stroke="rgb(22,128,236)" stroke-width="1" opacity="0.9686274509803922" d="M 127.5 57 L 131.5 63 L 133 62.5 L 133.5 65 L 140.5 65 L 140.5 66 Q 137.2 64.9 138 67.5 L 137 70.5 L 138 73.5 L 136.5 73 L 133.5 72 L 132 72.5 L 131.5 71 L 129.5 71 L 124.5 71 L 124 69 L 122.5 69 L 119.5 70 L 116 68.5 L 118.5 67 L 119 69 L 122 68.5 L 121.5 67 L 129 64 Q 129.8 58.5 127.5 57 Z " /><path fill="rgb(22,128,236)" stroke="rgb(22,128,236)" stroke-width="1" opacity="0.9686274509803922" d="M 98 61 Q 101.7 59.6 100 65.5 L 98.5 68 L 98 61 Z " /><path fill="rgb(22,128,236)" stroke="rgb(22,128,236)" stroke-width="1" opacity="0.9686274509803922" d="M 112.5 61 Q 115.5 60.1 114 64.5 L 113 64.5 L 112.5 61 Z " /><path fill="rgb(22,128,236)" stroke="rgb(22,128,236)" stroke-width="1" opacity="0.9686274509803922" d="M 102.5 75 L 103.5 77 L 102.5 75 Z " /><path fill="rgb(22,128,236)" stroke="rgb(22,128,236)" stroke-width="1" opacity="0.9686274509803922" d="M 105.5 77 L 113 80.5 L 112.5 82 L 114.5 81 L 116.5 82 L 118 81.5 Q 117.1 84.9 122.5 83 L 125.5 84 L 127 83.5 Q 125.6 88 120 87 Q 120.8 90.8 117.5 92 L 112.5 93 Q 109.7 91.8 112 90.5 L 109.5 87 L 97.5 87 L 97.5 89 Q 94.5 87.5 97.5 86 Q 99.8 86.8 99 84.5 Q 100.5 80.8 106 82 Q 104.9 79.3 107.5 80 L 107.5 79 L 105.5 77 Z M 109 80 L 108 82 L 110 81 L 109 80 Z " /><path fill="rgb(22,128,236)" stroke="rgb(22,128,236)" stroke-width="1" opacity="0.9686274509803922" d="M 128.5 84 L 127.5 86 L 128.5 84 Z " /><path fill="rgb(22,128,236)" stroke="rgb(22,128,236)" stroke-width="1" opacity="0.9686274509803922" d="M 94 89 L 96 89.5 L 95 92 L 97 92.5 L 96.5 94 L 98 94.5 L 98 96.5 L 101 102.5 L 100.5 105 L 99 104.5 L 100 107.5 L 94 111.5 L 96.5 115 L 91.5 113 L 89 114.5 L 90 117 L 93.5 116 L 93.5 117 L 89.5 119 L 88 118.5 L 88 121 Q 85 119.8 86 123.5 L 85 127 L 82 128.5 L 83 130.5 L 80 132.5 L 80.5 134 Q 79.3 131.8 78 134.5 L 78.5 136 L 76 135 L 74.5 141 L 73 140.5 Q 74.7 145.3 70.5 144 L 69 147.5 L 69.5 149 L 67 147.5 L 66 149.5 Q 68.8 151.2 64.5 153 L 60 150.5 Q 60.8 147.9 57.5 149 L 51 143.5 L 53.5 145 L 54.5 144 Q 56.8 144.8 56 142.5 L 58.5 138 L 61 137.5 L 60 136.5 L 63 133.5 L 65 130.5 L 64.5 129 L 67 129 L 67 125 L 68.5 125 L 68.5 124 Q 65.9 124.7 67 122 Q 69.7 120.9 69 123.5 L 70 123.5 L 70.5 122 L 71.5 124 L 73 121.5 L 72 118.5 L 74 115 L 76 114.5 Q 73.8 113.3 76.5 112 L 78 111.5 L 78 107.5 L 79 103.5 L 78 100.5 L 79 100.5 L 80 103.5 L 79 107.5 L 81.5 108 L 84.5 107 L 86.5 107 L 94 108 L 94 89 Z M 99 106 L 97 108 L 99 108 L 99 106 Z " /><path fill="rgb(22,128,236)" stroke="rgb(22,128,236)" stroke-width="1" opacity="0.9686274509803922" d="M 116.5 94 L 117.5 96 L 116.5 94 Z " /><path fill="rgb(22,128,236)" stroke="rgb(22,128,236)" stroke-width="1" opacity="0.9686274509803922" d="M 145.5 135 L 144.5 137 L 145.5 135 Z " /><path fill="rgb(22,128,236)" stroke="rgb(22,128,236)" stroke-width="1" opacity="0.9686274509803922" d="M 137.5 142 L 137 143.5 L 136.5 145 L 136 143.5 L 137.5 142 Z " /><path fill="rgb(0,0,0)" stroke="rgb(0,0,0)" stroke-width="1" opacity="0" d="M 0 0 L 182 0 L 182 182 L 0 182 L 0 0 Z M 89 6 L 88 7 L 81 7 L 54 12 L 27 19 L 21 21 L 18 24 L 18 93 L 19 94 L 19 102 Q 23 118 33 130 L 57 150 L 93 171 Q 120 158 143 140 Q 153 131 160 120 L 167 102 Q 166 97 168 96 L 168 24 L 163 20 L 133 12 L 106 7 L 89 6 Z " /><path fill="rgb(0,0,0)" stroke="rgb(0,0,0)" stroke-width="1" opacity="0" d="M 119.5 45 Q 136.5 44.5 143 54.5 Q 145.8 57.5 145 63 L 134.5 63 L 134 61.5 Q 130.4 54.6 119.5 55 L 113 59.5 L 112 64.5 L 115.5 69 L 134.5 74 L 144 80.5 Q 147.9 84.6 147 93.5 L 141.5 103 L 129.5 108 L 115.5 108 Q 105.8 106.2 101 99.5 Q 97 95.6 98 88 L 108.5 88 L 110 89.5 L 115.5 97 L 127.5 98 L 134 93.5 Q 135.5 85.5 130.5 84 L 126.5 82 L 111.5 79 L 102 72.5 Q 98.3 68.2 100 58.5 L 107.5 49 L 119.5 45 Z " /><path fill="rgb(0,0,0)" stroke="rgb(0,0,0)" stroke-width="1" opacity="0" d="M 40 47 L 51.5 47 L 53 48.5 L 53 70.5 L 54.5 72 L 68.5 71 L 69.5 72 L 78.5 72 L 80 70.5 L 80 48.5 L 81.5 47 L 91.5 47 L 93 48.5 L 93 106.5 L 92.5 107 L 80 107 L 80 82.5 L 78.5 81 L 60.5 81 L 59.5 82 L 53 82 L 53 107 L 40 107 L 40 47 Z " /><path fill="rgb(104,181,240)" stroke="rgb(104,181,240)" stroke-width="1" opacity="0.5450980392156862" d="M 88.5 6 L 97.5 6 L 98.5 7 L 105.5 7 L 117.5 10 L 122.5 10 L 159 19.5 L 156.5 20 L 152.5 18 L 122.5 11 L 117.5 11 L 105.5 8 L 98.5 8 L 97.5 7 L 88.5 7 L 87.5 8 L 80.5 8 L 53.5 13 L 26.5 20 L 19 23.5 L 18.5 93 L 18 23.5 L 20.5 21 L 26.5 19 L 53.5 12 L 80.5 7 L 87.5 7 L 88.5 6 Z " /><path fill="rgb(104,181,240)" stroke="rgb(104,181,240)" stroke-width="1" opacity="0.5450980392156862" d="M 160.5 20 Q 166.1 19.9 168 23.5 L 168 95.5 L 163.5 111 L 163 109.5 L 167 94.5 L 167 23 L 160.5 21 L 160.5 20 Z " /><path fill="rgb(104,181,240)" stroke="rgb(104,181,240)" stroke-width="1" opacity="0.5450980392156862" d="M 119.5 55 L 125 55.5 L 119.5 56 L 119.5 55 Z " /><path fill="rgb(104,181,240)" stroke="rgb(104,181,240)" stroke-width="1" opacity="0.5450980392156862" d="M 116.5 56 L 118 56.5 L 115.5 58 L 116.5 56 Z " /><path fill="rgb(104,181,240)" stroke="rgb(104,181,240)" stroke-width="1" opacity="0.5450980392156862" d="M 126.5 56 L 134 61.5 Q 133.1 64.5 137.5 63 L 137.5 64 Q 133.8 64.8 133 62.5 L 129.5 58 Q 125.7 57.8 126.5 56 Z " /><path fill="rgb(104,181,240)" stroke="rgb(104,181,240)" stroke-width="1" opacity="0.5450980392156862" d="M 100.5 69 L 105.5 76 L 114 79.5 L 111.5 80 Q 104.8 77.8 101 72.5 L 100.5 69 Z " /><path fill="rgb(104,181,240)" stroke="rgb(104,181,240)" stroke-width="1" opacity="0.5450980392156862" d="M 56.5 71 L 65 71.5 L 56.5 72 L 56.5 71 Z " /><path fill="rgb(104,181,240)" stroke="rgb(104,181,240)" stroke-width="1" opacity="0.5450980392156862" d="M 69.5 71 L 74 71.5 L 69.5 72 L 69.5 71 Z " /><path fill="rgb(104,181,240)" stroke="rgb(104,181,240)" stroke-width="1" opacity="0.5450980392156862" d="M 115.5 80 L 118 80.5 L 115.5 81 L 115.5 80 Z " /><path fill="rgb(104,181,240)" stroke="rgb(104,181,240)" stroke-width="1" opacity="0.5450980392156862" d="M 60.5 81 L 79 81.5 L 60.5 82 L 60.5 81 Z " /><path fill="rgb(104,181,240)" stroke="rgb(104,181,240)" stroke-width="1" opacity="0.5450980392156862" d="M 119.5 81 L 123 81.5 L 119.5 82 L 119.5 81 Z " /><path fill="rgb(104,181,240)" stroke="rgb(104,181,240)" stroke-width="1" opacity="0.5450980392156862" d="M 124.5 82 Q 131.1 82.9 134 87.5 L 133.5 93 Q 134.3 86.7 130.5 85 L 124.5 83 L 124.5 82 Z " /><path fill="rgb(104,181,240)" stroke="rgb(104,181,240)" stroke-width="1" opacity="0.5450980392156862" d="M 99.5 87 L 106 87.5 L 99.5 88 L 99.5 87 Z " /><path fill="rgb(104,181,240)" stroke="rgb(104,181,240)" stroke-width="1" opacity="0.5450980392156862" d="M 19.5 95 L 23 111.5 Q 29.1 125.4 39.5 135 L 65 154.5 L 63.5 154 Q 46 144 33 129.5 L 22 111.5 L 19 101.5 L 19.5 95 Z " /><path fill="rgb(104,181,240)" stroke="rgb(104,181,240)" stroke-width="1" opacity="0.5450980392156862" d="M 99.5 97 L 102 100.5 L 100 99.5 L 99.5 97 Z " /><path fill="rgb(104,181,240)" stroke="rgb(104,181,240)" stroke-width="1" opacity="0.5450980392156862" d="M 103.5 102 L 104.5 104 L 103.5 102 Z " /><path fill="rgb(104,181,240)" stroke="rgb(104,181,240)" stroke-width="1" opacity="0.5450980392156862" d="M 106.5 104 L 107.5 106 L 106.5 104 Z " /><path fill="rgb(104,181,240)" stroke="rgb(104,181,240)" stroke-width="1" opacity="0.5450980392156862" d="M 47.5 107 L 50 107.5 L 47.5 108 L 47.5 107 Z " /><path fill="rgb(104,181,240)" stroke="rgb(104,181,240)" stroke-width="1" opacity="0.5450980392156862" d="M 117.5 108 L 127 108.5 L 117.5 109 L 117.5 108 Z " /><path fill="rgb(104,181,240)" stroke="rgb(104,181,240)" stroke-width="1" opacity="0.5450980392156862" d="M 162.5 112 L 163 113.5 L 152.5 129 L 155 125.5 L 162.5 112 Z " /><path fill="rgb(104,181,240)" stroke="rgb(104,181,240)" stroke-width="1" opacity="0.5450980392156862" d="M 151.5 130 L 143.5 139 L 151.5 130 Z " /><path fill="rgb(104,181,240)" stroke="rgb(104,181,240)" stroke-width="1" opacity="0.5450980392156862" d="M 141.5 139 L 137.5 144 L 141.5 139 Z " /><path fill="rgb(104,181,240)" stroke="rgb(104,181,240)" stroke-width="1" opacity="0.5450980392156862" d="M 135.5 144 L 133.5 147 L 135.5 144 Z " /><path fill="rgb(104,181,240)" stroke="rgb(104,181,240)" stroke-width="1" opacity="0.5450980392156862" d="M 131.5 147 L 129.5 150 L 131.5 147 Z " /><path fill="rgb(104,181,240)" stroke="rgb(104,181,240)" stroke-width="1" opacity="0.5450980392156862" d="M 127.5 150 L 126.5 152 L 127.5 150 Z " /><path fill="rgb(104,181,240)" stroke="rgb(104,181,240)" stroke-width="1" opacity="0.5450980392156862" d="M 124.5 152 L 123.5 154 L 124.5 152 Z " /><path fill="rgb(104,181,240)" stroke="rgb(104,181,240)" stroke-width="1" opacity="0.5450980392156862" d="M 121.5 154 L 120.5 156 L 121.5 154 Z " /><path fill="rgb(104,181,240)" stroke="rgb(104,181,240)" stroke-width="1" opacity="0.5450980392156862" d="M 66.5 155 L 73 159.5 L 71.5 159 Q 66.9 157.8 66.5 155 Z " /><path fill="rgb(104,181,240)" stroke="rgb(104,181,240)" stroke-width="1" opacity="0.5450980392156862" d="M 116.5 157 L 115.5 159 L 116.5 157 Z " /><path fill="rgb(104,181,240)" stroke="rgb(104,181,240)" stroke-width="1" opacity="0.5450980392156862" d="M 111.5 160 L 110.5 162 L 108.5 163 L 109.5 161 L 111.5 160 Z " /><path fill="rgb(104,181,240)" stroke="rgb(104,181,240)" stroke-width="1" opacity="0.5450980392156862" d="M 76.5 161 L 82 164.5 L 80.5 164 Q 76.5 163.5 76.5 161 Z " /><path fill="rgb(104,181,240)" stroke="rgb(104,181,240)" stroke-width="1" opacity="0.5450980392156862" d="M 104.5 164 L 103.5 166 L 99.5 168 L 100.5 166 L 104.5 164 Z " /><path fill="rgb(104,181,240)" stroke="rgb(104,181,240)" stroke-width="1" opacity="0.5450980392156862" d="M 83.5 165 L 91 169.5 L 89.5 169 Q 83.9 168.2 83.5 165 Z " /><path fill="rgb(104,181,240)" stroke="rgb(104,181,240)" stroke-width="1" opacity="0.5450980392156862" d="M 96.5 168 L 98 168.5 L 95.5 170 L 96.5 168 Z " /><path fill="rgb(34,165,244)" stroke="rgb(34,165,244)" stroke-width="1" opacity="0.996078431372549" d="M 88.5 7 L 98 7.5 L 96 8.5 L 98.5 9 Q 100 6.5 105.5 8 L 105.5 9 L 101 9.5 L 103 10.5 L 101 14.5 L 100.5 16 L 99 15.5 L 100 17.5 L 96 20 L 96 22 L 92 24 L 92 27 L 89.5 27 L 89.5 28 L 91 28.5 L 89 29 L 85 37 L 81.5 38 L 80.5 37 L 74.5 43 Q 72.3 42.3 73 44.5 L 73 48.5 L 71.5 51 Q 68.5 50.2 70 54 L 67 54 Q 68.1 56.7 65.5 56 L 63 60.5 L 64 62.5 L 62.5 62 L 59 62.5 L 62 63 Q 63.4 67 56.5 65 L 55 65.5 L 54.5 59 L 53.5 71 L 53 47 L 39 47 L 39 77.5 L 38 80.5 L 39 82.5 L 36 83.5 L 35 85.5 L 36 88 L 33 88.5 L 34 92 L 30 93 L 31 98 L 29 98.5 Q 31.3 99.8 28.5 101 L 25.5 100 L 25 101.5 L 26.5 104 L 24.5 104 L 21.5 106 L 21 103.5 L 22 100.5 L 20 100.5 L 21 93.5 L 20 93.5 L 19.5 95 L 19 23.5 L 33.5 18 L 53.5 13 L 72.5 10 L 74 10.5 Q 73.4 7.8 79.5 9 Q 81 6.5 86.5 8 L 89.5 9 L 89.5 8 L 88.5 7 Z " /><path fill="rgb(34,165,244)" stroke="rgb(34,165,244)" stroke-width="1" opacity="0.996078431372549" d="M 107.5 9 L 112 9.5 L 109 10 L 110 12.5 L 105.5 13 L 103.5 14 L 103 12.5 L 104 10 L 107.5 9 Z " /><path fill="rgb(34,165,244)" stroke="rgb(34,165,244)" stroke-width="1" opacity="0.996078431372549" d="M 114.5 10 L 117 10.5 L 114.5 11 L 114.5 10 Z " /><path fill="rgb(34,165,244)" stroke="rgb(34,165,244)" stroke-width="1" opacity="0.996078431372549" d="M 119.5 11 L 123 11.5 L 120.5 13 L 119.5 11 Z " /><path fill="rgb(34,165,244)" stroke="rgb(34,165,244)" stroke-width="1" opacity="0.996078431372549" d="M 130.5 13 L 133 13.5 L 130.5 14 L 130.5 13 Z " /><path fill="rgb(34,165,244)" stroke="rgb(34,165,244)" stroke-width="1" opacity="0.996078431372549" d="M 166.5 23 L 167 46.5 L 166 46.5 L 166.5 23 Z " /><path fill="rgb(34,165,244)" stroke="rgb(34,165,244)" stroke-width="1" opacity="0.996078431372549" d="M 93.5 47 L 94 75.5 L 93 75.5 L 93.5 47 Z " /><path fill="rgb(34,165,244)" stroke="rgb(34,165,244)" stroke-width="1" opacity="0.996078431372549" d="M 166.5 48 L 167 54.5 L 166 54.5 L 166.5 48 Z " /><path fill="rgb(34,165,244)" stroke="rgb(34,165,244)" stroke-width="1" opacity="0.996078431372549" d="M 131.5 60 L 132.5 62 L 131.5 60 Z " /><path fill="rgb(34,165,244)" stroke="rgb(34,165,244)" stroke-width="1" opacity="0.996078431372549" d="M 93.5 77 L 94 80.5 L 93 80.5 L 93.5 77 Z " /><path fill="rgb(34,165,244)" stroke="rgb(34,165,244)" stroke-width="1" opacity="0.996078431372549" d="M 54.5 82 L 79 82.5 L 54 83 L 53.5 108 L 53 83.5 L 54.5 82 Z " /><path fill="rgb(34,165,244)" stroke="rgb(34,165,244)" stroke-width="1" opacity="0.996078431372549" d="M 166.5 92 L 167 94.5 L 166 94.5 L 166.5 92 Z " /><path fill="rgb(34,165,244)" stroke="rgb(34,165,244)" stroke-width="1" opacity="0.996078431372549" d="M 23.5 106 L 24 107.5 L 22 108.5 L 23.5 106 Z " /><path fill="rgb(34,165,244)" stroke="rgb(34,165,244)" stroke-width="1" opacity="0.996078431372549" d="M 25.5 112 L 24.5 114 L 25.5 112 Z " /><path fill="rgb(34,165,244)" stroke="rgb(34,165,244)" stroke-width="1" opacity="0.996078431372549" d="M 36.5 131 L 39.5 135 L 36.5 131 Z " /><path fill="rgb(34,165,244)" stroke="rgb(34,165,244)" stroke-width="1" opacity="0.996078431372549" d="M 47.5 141 L 48.5 143 L 47.5 141 Z " /><path fill="rgb(25,136,238)" stroke="rgb(25,136,238)" stroke-width="1" opacity="0.9764705882352941" d="M 138.5 16 Q 143.5 15 142.5 18 L 147.5 18 L 150.5 19 L 153.5 20 L 155 19.5 L 154.5 21 Q 158.3 20 157 23 L 155 23 Q 156.1 25.7 153.5 25 L 154 23.5 L 153.5 21 L 151 25.5 L 151.5 27 L 150 26.5 Q 151.1 29.8 148.5 29 L 149 30.5 L 148.5 32 L 147.5 30 L 144 36.5 Q 146.5 38 143 39.5 L 141 42.5 L 141.5 44 L 139 45.5 L 140 48 L 142 48.5 L 139.5 49 L 134.5 46 Q 133 48.5 131.5 45 L 125.5 44 L 124 44.5 L 124.5 43 Q 120.1 41.5 121 44.5 L 119 43.5 Q 119.9 40.5 115.5 42 L 115.5 43 Q 119.3 42 118 45 Q 114.2 46.5 115 43.5 Q 112.8 42.3 115.5 41 L 119 38.5 L 118.5 36 L 117 36.5 L 118.5 33 Q 116.8 35 120.5 37 L 122 33.5 L 119 31.5 L 120.5 31 Q 122.3 34.8 124 31.5 L 122 30.5 L 129 24.5 L 128.5 23 L 130 23.5 Q 129.1 20.5 133.5 22 L 134.5 20 L 133 19.5 L 138.5 16 Z M 139 17 Q 137 20 140 19 L 139 17 Z " /><path fill="rgb(25,136,238)" stroke="rgb(25,136,238)" stroke-width="1" opacity="0.9764705882352941" d="M 147.5 34 L 146.5 36 L 145 35.5 L 147.5 34 Z " /><path fill="rgb(25,136,238)" stroke="rgb(25,136,238)" stroke-width="1" opacity="0.9764705882352941" d="M 110.5 45 L 111.5 47 L 109.5 48 L 109 46.5 L 110.5 45 Z " /><path fill="rgb(25,136,238)" stroke="rgb(25,136,238)" stroke-width="1" opacity="0.9764705882352941" d="M 106.5 48 L 108 48.5 L 106 49 L 104.5 52 L 102 51.5 L 106.5 48 Z " /><path fill="rgb(25,136,238)" stroke="rgb(25,136,238)" stroke-width="1" opacity="0.9764705882352941" d="M 101.5 53 L 103 53.5 Q 98.7 55.8 100.5 58 Q 98.3 58.8 99 56.5 L 101.5 53 Z " /><path fill="rgb(25,136,238)" stroke="rgb(25,136,238)" stroke-width="1" opacity="0.9764705882352941" d="M 116.5 57 L 119.5 58 L 125.5 57 L 129 59.5 Q 130.9 64.9 127.5 64 L 121 67.5 L 124 69 Q 125 72 122 71 L 122 69 Q 118.3 70.5 119 67.5 L 117.5 68 L 114 67 L 115 62.5 L 113 59 Q 116.8 60.3 116.5 57 Z " /><path fill="rgb(25,136,238)" stroke="rgb(25,136,238)" stroke-width="1" opacity="0.9764705882352941" d="M 95 59 L 99 60.5 Q 96.5 62 98 67.5 L 98.5 70 Q 101.5 69.2 100 73 L 102 73 L 102 75.5 L 105 76.5 L 106.5 79 L 110 80.5 L 107.5 82 L 107.5 80 Q 104.9 79.3 106 82 L 101.5 82 L 100.5 84 L 102 84.5 L 100.5 85 L 99 84.5 Q 99.8 86.8 97.5 86 L 96 89 L 94 88.5 L 94 70.5 L 94 68.5 L 95 59 Z " /><path fill="rgb(25,136,238)" stroke="rgb(25,136,238)" stroke-width="1" opacity="0.9764705882352941" d="M 77.5 70 L 80 70.5 Q 77.9 73.8 77.5 70 Z " /><path fill="rgb(25,136,238)" stroke="rgb(25,136,238)" stroke-width="1" opacity="0.9764705882352941" d="M 113.5 80 L 114 82 L 112 81.5 L 113.5 80 Z " /><path fill="rgb(25,136,238)" stroke="rgb(25,136,238)" stroke-width="1" opacity="0.9764705882352941" d="M 79.5 83 L 79 84.5 Q 77.7 91.3 80 94.5 L 79 97.5 L 80 100.5 L 79 103.5 L 80 107.5 Q 75.7 109.8 77.5 112 L 75 113.5 L 75.5 115 Q 73.3 114.3 74 116.5 L 72 120.5 L 73 122.5 L 71 123.5 L 70.5 122 L 68.5 125 L 67 125 L 67 129 L 64.5 129 Q 66.1 130.8 63 132.5 L 62 134.5 L 63 136.5 L 62 136.5 L 61.5 135 L 60.5 138 L 57 139.5 L 56 144 L 53.5 145 Q 51.8 141.9 50 143.5 L 48.5 141 Q 39 137 34 128.5 L 40 132.5 L 41.5 128 L 42 132 Q 45.7 133.5 45 130.5 L 48 128.5 L 48.5 130 L 50.5 126 L 52 126.5 Q 52.7 123.9 50 125 L 50 122.5 L 54.5 119 L 56 119.5 L 56.5 115 L 58.5 116 L 57.5 113 Q 58.8 115.2 60 112.5 L 59.5 111 L 57.5 112 L 57.5 111 L 63 109.5 L 62 106.5 L 63.5 105 Q 65.8 105.8 65 103.5 L 65.5 101 L 67 100.5 L 66.5 99 L 70 98.5 L 69 96 Q 72.7 97.5 72 94.5 L 70 94.5 L 74.5 90 L 77 90 L 78 86.5 Q 75.2 84.8 79.5 83 Z M 79 100 L 78 103 L 79 103 L 79 100 Z M 79 104 L 78 108 L 79 108 L 79 104 Z M 67 122 Q 66 125 69 124 Q 70 121 67 122 Z M 41 133 L 42 135 Q 43 132 41 133 Z " /><path fill="rgb(25,136,238)" stroke="rgb(25,136,238)" stroke-width="1" opacity="0.9764705882352941" d="M 39.5 84 L 40 106.5 L 41 107.5 L 39 106.5 L 39.5 84 Z " /><path fill="rgb(25,136,238)" stroke="rgb(25,136,238)" stroke-width="1" opacity="0.9764705882352941" d="M 121.5 97 L 124 97.5 L 121.5 98 L 121.5 97 Z " /><path fill="rgb(25,136,238)" stroke="rgb(25,136,238)" stroke-width="1" opacity="0.9764705882352941" d="M 101.5 101 L 103.5 104 L 101.5 101 Z " /><path fill="rgb(25,136,238)" stroke="rgb(25,136,238)" stroke-width="1" opacity="0.9764705882352941" d="M 54.5 104 L 55 107.5 L 54 107.5 L 54.5 104 Z " /><path fill="rgb(25,136,238)" stroke="rgb(25,136,238)" stroke-width="1" opacity="0.9764705882352941" d="M 105.5 104 L 106.5 106 L 105.5 104 Z " /><path fill="rgb(25,136,238)" stroke="rgb(25,136,238)" stroke-width="1" opacity="0.9764705882352941" d="M 54.5 116 L 53.5 118 L 54.5 116 Z " /><path fill="rgb(25,136,238)" stroke="rgb(25,136,238)" stroke-width="1" opacity="0.9764705882352941" d="M 30.5 123 L 31.5 125 L 30.5 123 Z " /><path fill="rgb(15,112,233)" stroke="rgb(15,112,233)" stroke-width="1" opacity="0.9803921568627451" d="M 130.5 45 Q 132.8 44.3 132 46.5 L 130.5 45 Z " /><path fill="rgb(15,112,233)" stroke="rgb(15,112,233)" stroke-width="1" opacity="0.9803921568627451" d="M 163.5 45 L 166 46.5 L 165.5 74 L 164.5 72 L 163 74.5 L 164 76.5 L 161 78.5 L 160.5 76 L 159 80.5 L 161 80.5 L 160.5 82 L 162 82.5 L 157 84.5 Q 157.8 87.1 154.5 86 L 155.5 89 L 153.5 89 L 152 89.5 L 153 92.5 L 152 92.5 L 151.5 91 L 150.5 93 L 149.5 91 L 148.5 96 L 147 92.5 L 148 88.5 L 147 83.5 L 144 79 L 135 75 L 135.5 73 Q 136.3 75.8 140.5 75 L 144.5 68 L 146.5 69 L 145.5 66 Q 146.8 68.3 148 65.5 L 144 64.5 L 147.5 64 L 149.5 65 L 149 63.5 L 155 57.5 L 155.5 56 L 157 56.5 L 157 53 L 160 53 Q 158.5 49.3 161.5 50 Q 164.3 48.8 162 47.5 L 163.5 45 Z " /><path fill="rgb(15,112,233)" stroke="rgb(15,112,233)" stroke-width="1" opacity="0.9803921568627451" d="M 138.5 49 L 140.5 52 L 138.5 49 Z " /><path fill="rgb(15,112,233)" stroke="rgb(15,112,233)" stroke-width="1" opacity="0.9803921568627451" d="M 144.5 55 L 145 57.5 L 144 57.5 L 144.5 55 Z " /><path fill="rgb(15,112,233)" stroke="rgb(15,112,233)" stroke-width="1" opacity="0.9803921568627451" d="M 146.5 59 L 147 61 L 145 60.5 L 146.5 59 Z " /><path fill="rgb(15,112,233)" stroke="rgb(15,112,233)" stroke-width="1" opacity="0.9803921568627451" d="M 134.5 64 L 143 64.5 L 134.5 65 L 134.5 64 Z " /><path fill="rgb(15,112,233)" stroke="rgb(15,112,233)" stroke-width="1" opacity="0.9803921568627451" d="M 165.5 76 L 166 78.5 L 165 78.5 L 165.5 76 Z " /><path fill="rgb(15,112,233)" stroke="rgb(15,112,233)" stroke-width="1" opacity="0.9803921568627451" d="M 129.5 85 Q 134 86 133 92.5 L 130.5 96 L 127.5 95 L 127.5 97 L 119.5 97 L 119 95.5 L 121 94.5 Q 120.3 96.8 122.5 96 L 129 88.5 L 128.5 87 L 130 87.5 L 129.5 85 Z " /><path fill="rgb(15,112,233)" stroke="rgb(15,112,233)" stroke-width="1" opacity="0.9803921568627451" d="M 96.5 88 L 97 91.5 L 96 91.5 L 96.5 88 Z " /><path fill="rgb(15,112,233)" stroke="rgb(15,112,233)" stroke-width="1" opacity="0.9803921568627451" d="M 114.5 95 L 117 95.5 Q 114.9 98.8 114.5 95 Z " /><path fill="rgb(15,112,233)" stroke="rgb(15,112,233)" stroke-width="1" opacity="0.9803921568627451" d="M 105.5 105 L 108 106.5 L 106.5 107 L 105.5 105 Z " /><path fill="rgb(15,112,233)" stroke="rgb(15,112,233)" stroke-width="1" opacity="0.9803921568627451" d="M 136.5 105 L 138 105.5 L 136 106.5 L 138 107 L 136.5 110 L 132 113.5 L 132.5 115 Q 130.3 114.3 131 116.5 L 128 118 Q 129.7 122.1 125.5 121 L 125.5 123 L 124 123.5 L 124 125.5 L 123 127.5 L 123.5 129 L 120 128 Q 118.9 130.7 121.5 130 L 121.5 131 L 119 132.5 L 117.5 136 L 116 135.5 L 117 137.5 L 114 138 L 110.5 144 Q 107.9 143.2 109 146.5 L 110 147.5 L 105 152.5 L 106.5 155 L 104.5 155 L 100 158.5 L 101 161 L 99 161.5 Q 101.5 163 98 164.5 L 99.5 167 L 96 166.5 Q 96.7 169.1 94 168 L 94 170 L 92 170 L 91.5 168 L 90 168.5 Q 90.8 166.3 88.5 167 L 80 162.5 Q 80.9 159.5 76.5 161 L 71 157.5 L 76 156.5 L 75.5 155 L 80 154 L 79.5 152 L 78 152.5 L 79.5 148 L 80 151 L 82 150.5 L 81.5 149 L 83 149.5 L 80 144.5 L 81.5 145 Q 83.8 145.8 83 143.5 L 84 141 Q 87.8 142.5 87 139.5 L 87.5 138 L 86 137.5 Q 91.3 134.8 92.5 128 L 93 130 Q 96 131.3 95 127.5 L 96 125 L 99 123.5 L 98.5 122 L 100 122.5 L 104.5 116 Q 106.8 116.8 106 114.5 Q 103.5 113 107 111.5 L 107.5 110 L 109 110.5 L 110.5 107 L 113 108 Q 111.9 110.7 114.5 110 L 117.5 109 L 118.5 110 L 127.5 110 L 131.5 107 L 131.5 109 L 134 108.5 Q 131.8 107.3 134.5 106 L 136.5 105 Z M 118 131 L 116 133 L 118 134 L 118 131 Z " /><path fill="rgb(15,112,233)" stroke="rgb(15,112,233)" stroke-width="1" opacity="0.9803921568627451" d="M 90.5 128 L 89.5 130 L 90.5 128 Z " /><path fill="rgb(15,112,233)" stroke="rgb(15,112,233)" stroke-width="1" opacity="0.9803921568627451" d="M 117.5 139 L 116.5 141 L 117.5 139 Z " /><path fill="rgb(15,112,233)" stroke="rgb(15,112,233)" stroke-width="1" opacity="0.9803921568627451" d="M 110.5 145 L 111.5 147 L 110.5 145 Z " /><path fill="rgb(15,112,233)" stroke="rgb(15,112,233)" stroke-width="1" opacity="0.9803921568627451" d="M 75.5 152 L 76.5 154 L 75.5 152 Z " /><path fill="rgb(15,112,233)" stroke="rgb(15,112,233)" stroke-width="1" opacity="0.9803921568627451" d="M 65.5 153 L 66.5 155 L 65.5 153 Z " /><path fill="rgb(9,99,229)" stroke="rgb(9,99,229)" stroke-width="1" opacity="0.9882352941176471" d="M 145 61 L 147 61.5 L 145 62.5 L 145 61 Z " /><path fill="rgb(9,99,229)" stroke="rgb(9,99,229)" stroke-width="1" opacity="0.9882352941176471" d="M 164.5 72 L 166 75.5 L 165 78.5 L 166 79.5 L 166 99.5 Q 159.5 127 139.5 141 Q 121 156 98.5 167 L 97 166.5 L 95.5 169 L 94 168.5 L 96 168 L 97 165.5 L 96 164.5 L 99.5 161 Q 101.8 161.8 101 159.5 L 100 158.5 L 103.5 155 L 106 153.5 L 105.5 150 Q 107.2 152.7 109 148.5 L 109 146.5 Q 107.9 143.2 110.5 144 L 114 138 L 117 137.5 L 115 133.5 L 118 131.5 L 118.5 134 L 120 131.5 L 120 129.5 Q 119.2 126.9 122.5 128 L 125 124.5 L 124.5 123 L 126 122.5 L 125.5 121 L 128 121 Q 126.5 117.3 129.5 118 L 131 115 L 133 114.5 L 131.5 112 Q 132.8 114.3 134 111.5 L 133.5 110 L 135.5 110 L 137 109.5 L 134.5 108 L 131.5 109 L 131.5 108 L 135.5 107 L 138 108.5 L 137 106.5 L 139 106 L 139.5 104 Q 141.2 106.7 143 102.5 L 146 95 L 148.5 96 Q 147.9 91.4 150.5 90 L 152.5 93 L 153 90.5 L 152.5 89 L 155 87.5 L 154.5 86 Q 157.8 87.1 157 84.5 L 162 82.5 L 159 80.5 L 160.5 76 L 161.5 79 Q 164.3 77.8 162 76.5 L 164.5 72 Z M 117 133 L 116 135 L 118 136 L 117 133 Z " /><path fill="rgb(9,99,229)" stroke="rgb(9,99,229)" stroke-width="1" opacity="0.9882352941176471" d="M 144.5 81 Q 147.8 81.8 147 86.5 L 146 86.5 L 144.5 81 Z " /><path fill="rgb(9,99,229)" stroke="rgb(9,99,229)" stroke-width="1" opacity="0.9882352941176471" d="M 118.5 109 L 128 109.5 L 118.5 110 L 118.5 109 Z " /><path fill="rgb(20,121,235)" stroke="rgb(20,121,235)" stroke-width="1" opacity="0.9568627450980393" d="M 164.5 32 L 166 34.5 L 166 36.5 L 165.5 46 L 163.5 45 L 162 47.5 Q 164.3 48.8 161.5 50 Q 158.5 49.2 160 53 L 157 53 L 157 56.5 L 155 56.5 L 151 61.5 L 151.5 63 Q 150.3 60.7 149 63.5 L 149.5 65 L 146 67.5 L 146.5 69 L 144.5 68 L 140.5 75 Q 136.8 75.8 136 73.5 L 138 73.5 L 137 68.5 L 138 66 L 141.5 65 L 143.5 66 L 148 64.5 L 139 63.5 L 147 63 L 146.5 57 L 145.5 59 L 145 56 L 149 54.5 L 149 52 L 152 52 Q 151 49 154 50 L 154 47.5 L 153 45 Q 155.7 46.1 155 43.5 L 156 43.5 L 156.5 45 L 158 42.5 L 155 41.5 L 159 39.5 L 159.5 38 L 161.5 39 L 161.5 37 Q 163.8 37.8 163 35.5 L 162 33 L 164.5 32 Z " /><path fill="rgb(20,121,235)" stroke="rgb(20,121,235)" stroke-width="1" opacity="0.9568627450980393" d="M 140.5 50 L 144.5 55 L 141 53 L 140.5 50 Z " /><path fill="rgb(20,121,235)" stroke="rgb(20,121,235)" stroke-width="1" opacity="0.9568627450980393" d="M 112.5 62 L 114 65.5 L 112 64.5 L 112.5 62 Z " /><path fill="rgb(20,121,235)" stroke="rgb(20,121,235)" stroke-width="1" opacity="0.9568627450980393" d="M 114.5 67 Q 116.8 66.3 116 68.5 L 114.5 67 Z " /><path fill="rgb(20,121,235)" stroke="rgb(20,121,235)" stroke-width="1" opacity="0.9568627450980393" d="M 125.5 71 Q 129.9 69.5 129 72.5 L 127.5 72 Q 124.5 72.5 125.5 71 Z " /><path fill="rgb(20,121,235)" stroke="rgb(20,121,235)" stroke-width="1" opacity="0.9568627450980393" d="M 133.5 72 Q 135.8 71.3 135 73.5 L 132 73.5 L 133.5 72 Z " /><path fill="rgb(20,121,235)" stroke="rgb(20,121,235)" stroke-width="1" opacity="0.9568627450980393" d="M 142.5 76 L 143.5 78 L 142.5 76 Z " /><path fill="rgb(20,121,235)" stroke="rgb(20,121,235)" stroke-width="1" opacity="0.9568627450980393" d="M 126.5 84 L 127.5 86 Q 128.8 83.8 130 86.5 L 126 92.5 L 126.5 94 L 125.5 93 L 122.5 96 Q 120.3 96.8 121 94.5 L 119 95.5 L 120 97.5 L 118 96.5 L 116.5 94 L 113.5 95 L 114.5 93 L 119 90.5 L 118.5 89 L 120 89.5 Q 118.7 85.3 123.5 87 L 126.5 84 Z " /><path fill="rgb(20,121,235)" stroke="rgb(20,121,235)" stroke-width="1" opacity="0.9568627450980393" d="M 147.5 88 L 148 91.5 L 147 91.5 L 147.5 88 Z " /><path fill="rgb(20,121,235)" stroke="rgb(20,121,235)" stroke-width="1" opacity="0.9568627450980393" d="M 110 89 L 112 89.5 L 110 90.5 L 110 89 Z " /><path fill="rgb(20,121,235)" stroke="rgb(20,121,235)" stroke-width="1" opacity="0.9568627450980393" d="M 115.5 89 L 116.5 91 L 115.5 89 Z " /><path fill="rgb(20,121,235)" stroke="rgb(20,121,235)" stroke-width="1" opacity="0.9568627450980393" d="M 133.5 93 L 130.5 97 L 127 95.5 L 128.5 95 L 130.5 96 L 133.5 93 Z " /><path fill="rgb(20,121,235)" stroke="rgb(20,121,235)" stroke-width="1" opacity="0.9568627450980393" d="M 101.5 102 L 102 104 Q 106.5 102.5 105 107 L 108.5 107 Q 111.2 108.2 109 109.5 L 108.5 111 L 107 110.5 L 105 113.5 L 107 116.5 L 105.5 116 L 102 118.5 L 103 120.5 L 102 120.5 L 101.5 119 L 99 123.5 L 99.5 125 L 97.5 125 Q 95.3 124.3 96 126.5 L 95 130 Q 92.3 131.1 93 128.5 L 92 128.5 L 89 134.5 L 89.5 136 Q 87.8 133.3 86 137.5 L 88 138.5 L 87 141 Q 83.3 139.5 84 142.5 L 83 145 L 81 145.5 L 83 149.5 L 80 151 L 79.5 148 L 78 152.5 L 80 152.5 Q 80.8 154.8 78.5 154 L 75 155.5 L 75.5 157 Q 69.4 158.3 70 155.5 L 67 154.5 Q 67.8 152.3 65.5 153 L 67 148.5 L 67.5 147 L 69 147.5 L 70.5 144 Q 74.7 145.3 73 140.5 L 75 140.5 L 76 135 L 83 130.5 L 82 128.5 L 82.5 126 L 85 127 L 86 121 Q 89 122.3 88 118.5 L 90.5 118 L 92 117.5 L 90 117 L 89 114.5 L 91 113.5 L 89 112.5 L 90.5 112 L 95.5 114 L 94.5 111 L 99 108.5 L 97 107.5 L 101.5 102 Z " /><path fill="rgb(20,121,235)" stroke="rgb(20,121,235)" stroke-width="1" opacity="0.9568627450980393" d="M 89.5 107 L 92 107.5 L 89.5 108 L 89.5 107 Z " /><path fill="rgb(20,121,235)" stroke="rgb(20,121,235)" stroke-width="1" opacity="0.9568627450980393" d="M 113.5 107 L 115 109.5 L 113 110 L 113.5 107 Z " /></svg>